<mxfile host="app.diagrams.net" agent="Mozilla/5.0 (Windows NT 10.0; Win64; x64) AppleWebKit/537.36 (KHTML, like Gecko) Chrome/131.0.0.0 Safari/537.36" version="24.8.6">
  <diagram name="Page-1" id="bsnWSTosYQb0qHQ5N7Ny">
    <mxGraphModel dx="2514" dy="2037" grid="1" gridSize="10" guides="1" tooltips="1" connect="1" arrows="1" fold="1" page="1" pageScale="1" pageWidth="827" pageHeight="1169" math="0" shadow="0">
      <root>
        <mxCell id="0" />
        <mxCell id="1" parent="0" />
        <mxCell id="grSSC23IrZUVa-1DifsZ-12" style="edgeStyle=orthogonalEdgeStyle;rounded=0;orthogonalLoop=1;jettySize=auto;html=1;entryX=0;entryY=0.5;entryDx=0;entryDy=0;dashed=1;dashPattern=8 8;" edge="1" parent="1" source="grSSC23IrZUVa-1DifsZ-2" target="grSSC23IrZUVa-1DifsZ-11">
          <mxGeometry relative="1" as="geometry" />
        </mxCell>
        <mxCell id="grSSC23IrZUVa-1DifsZ-32" style="edgeStyle=orthogonalEdgeStyle;rounded=0;orthogonalLoop=1;jettySize=auto;html=1;entryX=0.5;entryY=0;entryDx=0;entryDy=0;" edge="1" parent="1" source="grSSC23IrZUVa-1DifsZ-2" target="grSSC23IrZUVa-1DifsZ-27">
          <mxGeometry relative="1" as="geometry" />
        </mxCell>
        <mxCell id="grSSC23IrZUVa-1DifsZ-2" value="&lt;b&gt;Création des pochoirs des territoires délégataires&lt;/b&gt;" style="rounded=1;whiteSpace=wrap;html=1;" vertex="1" parent="1">
          <mxGeometry x="150" y="153" width="150" height="60" as="geometry" />
        </mxCell>
        <mxCell id="grSSC23IrZUVa-1DifsZ-14" style="edgeStyle=orthogonalEdgeStyle;rounded=0;orthogonalLoop=1;jettySize=auto;html=1;exitX=1;exitY=0.5;exitDx=0;exitDy=0;entryX=0;entryY=0.5;entryDx=0;entryDy=0;dashed=1;dashPattern=8 8;" edge="1" parent="1" source="grSSC23IrZUVa-1DifsZ-3" target="grSSC23IrZUVa-1DifsZ-13">
          <mxGeometry relative="1" as="geometry" />
        </mxCell>
        <mxCell id="grSSC23IrZUVa-1DifsZ-35" style="edgeStyle=orthogonalEdgeStyle;rounded=0;orthogonalLoop=1;jettySize=auto;html=1;entryX=0.5;entryY=0;entryDx=0;entryDy=0;" edge="1" parent="1" source="grSSC23IrZUVa-1DifsZ-3" target="grSSC23IrZUVa-1DifsZ-4">
          <mxGeometry relative="1" as="geometry" />
        </mxCell>
        <mxCell id="grSSC23IrZUVa-1DifsZ-3" value="&lt;b&gt;Saisie suivi PERIGEO&lt;/b&gt;&lt;div&gt;Statut : A intégrer&lt;/div&gt;&lt;div&gt;PJ : Ajout des fichiers à intégrer&lt;/div&gt;" style="rounded=1;whiteSpace=wrap;html=1;" vertex="1" parent="1">
          <mxGeometry x="150" y="359" width="150" height="60" as="geometry" />
        </mxCell>
        <mxCell id="grSSC23IrZUVa-1DifsZ-37" style="edgeStyle=orthogonalEdgeStyle;rounded=0;orthogonalLoop=1;jettySize=auto;html=1;entryX=0.5;entryY=0;entryDx=0;entryDy=0;" edge="1" parent="1" source="grSSC23IrZUVa-1DifsZ-4" target="grSSC23IrZUVa-1DifsZ-5">
          <mxGeometry relative="1" as="geometry" />
        </mxCell>
        <mxCell id="grSSC23IrZUVa-1DifsZ-44" style="edgeStyle=orthogonalEdgeStyle;rounded=0;orthogonalLoop=1;jettySize=auto;html=1;entryX=0;entryY=0.5;entryDx=0;entryDy=0;dashed=1;dashPattern=8 8;" edge="1" parent="1" source="grSSC23IrZUVa-1DifsZ-4" target="grSSC23IrZUVa-1DifsZ-15">
          <mxGeometry relative="1" as="geometry" />
        </mxCell>
        <mxCell id="grSSC23IrZUVa-1DifsZ-4" value="&lt;b&gt;Intégration en base&lt;/b&gt;&lt;div&gt;&lt;ul&gt;&lt;li style=&quot;text-align: left;&quot;&gt;Archivage N-1&lt;/li&gt;&lt;li style=&quot;text-align: left;&quot;&gt;Suppression N-1&lt;/li&gt;&lt;li style=&quot;text-align: left;&quot;&gt;Ajout N&lt;/li&gt;&lt;/ul&gt;&lt;/div&gt;" style="rounded=1;whiteSpace=wrap;html=1;" vertex="1" parent="1">
          <mxGeometry x="150" y="440" width="150" height="86" as="geometry" />
        </mxCell>
        <mxCell id="grSSC23IrZUVa-1DifsZ-17" style="edgeStyle=orthogonalEdgeStyle;rounded=0;orthogonalLoop=1;jettySize=auto;html=1;exitX=1;exitY=0.5;exitDx=0;exitDy=0;entryX=0;entryY=0.5;entryDx=0;entryDy=0;dashed=1;dashPattern=8 8;" edge="1" parent="1" source="grSSC23IrZUVa-1DifsZ-5" target="grSSC23IrZUVa-1DifsZ-16">
          <mxGeometry relative="1" as="geometry" />
        </mxCell>
        <mxCell id="grSSC23IrZUVa-1DifsZ-38" style="edgeStyle=orthogonalEdgeStyle;rounded=0;orthogonalLoop=1;jettySize=auto;html=1;entryX=0.5;entryY=0;entryDx=0;entryDy=0;" edge="1" parent="1" source="grSSC23IrZUVa-1DifsZ-5" target="grSSC23IrZUVa-1DifsZ-6">
          <mxGeometry relative="1" as="geometry" />
        </mxCell>
        <mxCell id="grSSC23IrZUVa-1DifsZ-5" value="&lt;b&gt;Saisie suivi PERIGEO&lt;/b&gt;&lt;div&gt;Statut : Recettage&lt;/div&gt;" style="rounded=1;whiteSpace=wrap;html=1;" vertex="1" parent="1">
          <mxGeometry x="150" y="564" width="150" height="60" as="geometry" />
        </mxCell>
        <mxCell id="grSSC23IrZUVa-1DifsZ-19" style="edgeStyle=orthogonalEdgeStyle;rounded=0;orthogonalLoop=1;jettySize=auto;html=1;exitX=1;exitY=0.5;exitDx=0;exitDy=0;dashed=1;dashPattern=8 8;" edge="1" parent="1" source="grSSC23IrZUVa-1DifsZ-6" target="grSSC23IrZUVa-1DifsZ-18">
          <mxGeometry relative="1" as="geometry" />
        </mxCell>
        <mxCell id="grSSC23IrZUVa-1DifsZ-39" style="edgeStyle=orthogonalEdgeStyle;rounded=0;orthogonalLoop=1;jettySize=auto;html=1;entryX=0.5;entryY=0;entryDx=0;entryDy=0;" edge="1" parent="1" source="grSSC23IrZUVa-1DifsZ-6" target="grSSC23IrZUVa-1DifsZ-7">
          <mxGeometry relative="1" as="geometry" />
        </mxCell>
        <mxCell id="grSSC23IrZUVa-1DifsZ-40" style="edgeStyle=orthogonalEdgeStyle;rounded=0;orthogonalLoop=1;jettySize=auto;html=1;exitX=0;exitY=0.5;exitDx=0;exitDy=0;entryX=0.5;entryY=1;entryDx=0;entryDy=0;" edge="1" parent="1" source="grSSC23IrZUVa-1DifsZ-6" target="grSSC23IrZUVa-1DifsZ-23">
          <mxGeometry relative="1" as="geometry" />
        </mxCell>
        <mxCell id="grSSC23IrZUVa-1DifsZ-6" value="&lt;b&gt;Recettage&lt;/b&gt;&lt;div&gt;Présence des informations&lt;/div&gt;" style="rounded=1;whiteSpace=wrap;html=1;" vertex="1" parent="1">
          <mxGeometry x="150" y="667" width="150" height="60" as="geometry" />
        </mxCell>
        <mxCell id="grSSC23IrZUVa-1DifsZ-21" style="edgeStyle=orthogonalEdgeStyle;rounded=0;orthogonalLoop=1;jettySize=auto;html=1;exitX=1;exitY=0.5;exitDx=0;exitDy=0;entryX=0;entryY=0.5;entryDx=0;entryDy=0;dashed=1;dashPattern=8 8;" edge="1" parent="1" source="grSSC23IrZUVa-1DifsZ-7" target="grSSC23IrZUVa-1DifsZ-20">
          <mxGeometry relative="1" as="geometry" />
        </mxCell>
        <mxCell id="grSSC23IrZUVa-1DifsZ-7" value="&lt;b&gt;Saisie suivi PERIGEO&lt;/b&gt;&lt;div&gt;Statut : Validé&lt;/div&gt;" style="rounded=1;whiteSpace=wrap;html=1;" vertex="1" parent="1">
          <mxGeometry x="150" y="770" width="150" height="60" as="geometry" />
        </mxCell>
        <mxCell id="grSSC23IrZUVa-1DifsZ-9" style="edgeStyle=orthogonalEdgeStyle;rounded=0;orthogonalLoop=1;jettySize=auto;html=1;exitX=1;exitY=0.5;exitDx=0;exitDy=0;entryX=-0.023;entryY=0.505;entryDx=0;entryDy=0;entryPerimeter=0;dashed=1;dashPattern=8 8;" edge="1" parent="1" source="grSSC23IrZUVa-1DifsZ-8" target="grSSC23IrZUVa-1DifsZ-10">
          <mxGeometry relative="1" as="geometry">
            <mxPoint x="360" y="110" as="targetPoint" />
          </mxGeometry>
        </mxCell>
        <mxCell id="grSSC23IrZUVa-1DifsZ-31" style="edgeStyle=orthogonalEdgeStyle;rounded=0;orthogonalLoop=1;jettySize=auto;html=1;exitX=0.5;exitY=1;exitDx=0;exitDy=0;entryX=0.5;entryY=0;entryDx=0;entryDy=0;" edge="1" parent="1" source="grSSC23IrZUVa-1DifsZ-8" target="grSSC23IrZUVa-1DifsZ-2">
          <mxGeometry relative="1" as="geometry" />
        </mxCell>
        <mxCell id="grSSC23IrZUVa-1DifsZ-8" value="&lt;b&gt;Livraison&lt;/b&gt;" style="rounded=1;whiteSpace=wrap;html=1;" vertex="1" parent="1">
          <mxGeometry x="150" y="50" width="150" height="60" as="geometry" />
        </mxCell>
        <mxCell id="grSSC23IrZUVa-1DifsZ-10" value="Délégataire" style="ellipse;whiteSpace=wrap;html=1;" vertex="1" parent="1">
          <mxGeometry x="400" y="55" width="75" height="50" as="geometry" />
        </mxCell>
        <mxCell id="grSSC23IrZUVa-1DifsZ-11" value="CAGP" style="ellipse;whiteSpace=wrap;html=1;" vertex="1" parent="1">
          <mxGeometry x="400" y="158" width="75" height="50" as="geometry" />
        </mxCell>
        <mxCell id="grSSC23IrZUVa-1DifsZ-13" value="CAGP" style="ellipse;whiteSpace=wrap;html=1;" vertex="1" parent="1">
          <mxGeometry x="400" y="364" width="75" height="50" as="geometry" />
        </mxCell>
        <mxCell id="grSSC23IrZUVa-1DifsZ-15" value="ATD24" style="ellipse;whiteSpace=wrap;html=1;" vertex="1" parent="1">
          <mxGeometry x="400" y="458" width="75" height="50" as="geometry" />
        </mxCell>
        <mxCell id="grSSC23IrZUVa-1DifsZ-16" value="ATD24" style="ellipse;whiteSpace=wrap;html=1;" vertex="1" parent="1">
          <mxGeometry x="400" y="569" width="75" height="50" as="geometry" />
        </mxCell>
        <mxCell id="grSSC23IrZUVa-1DifsZ-18" value="CAGP" style="ellipse;whiteSpace=wrap;html=1;" vertex="1" parent="1">
          <mxGeometry x="400" y="672" width="75" height="50" as="geometry" />
        </mxCell>
        <mxCell id="grSSC23IrZUVa-1DifsZ-20" value="ATD24" style="ellipse;whiteSpace=wrap;html=1;" vertex="1" parent="1">
          <mxGeometry x="400" y="775" width="75" height="50" as="geometry" />
        </mxCell>
        <mxCell id="grSSC23IrZUVa-1DifsZ-23" value="&lt;b&gt;Saisie suivi PERIGEO&lt;/b&gt;&lt;div&gt;Statut : A intégrer&lt;/div&gt;" style="rounded=1;whiteSpace=wrap;html=1;" vertex="1" parent="1">
          <mxGeometry x="-30" y="564" width="120" height="60" as="geometry" />
        </mxCell>
        <mxCell id="grSSC23IrZUVa-1DifsZ-34" style="edgeStyle=orthogonalEdgeStyle;rounded=0;orthogonalLoop=1;jettySize=auto;html=1;entryX=0.5;entryY=0;entryDx=0;entryDy=0;" edge="1" parent="1" source="grSSC23IrZUVa-1DifsZ-27" target="grSSC23IrZUVa-1DifsZ-3">
          <mxGeometry relative="1" as="geometry" />
        </mxCell>
        <mxCell id="grSSC23IrZUVa-1DifsZ-43" style="edgeStyle=orthogonalEdgeStyle;rounded=0;orthogonalLoop=1;jettySize=auto;html=1;exitX=1;exitY=0.5;exitDx=0;exitDy=0;dashed=1;dashPattern=8 8;" edge="1" parent="1" source="grSSC23IrZUVa-1DifsZ-27" target="grSSC23IrZUVa-1DifsZ-42">
          <mxGeometry relative="1" as="geometry" />
        </mxCell>
        <mxCell id="grSSC23IrZUVa-1DifsZ-27" value="&lt;div style=&quot;text-align: center;&quot;&gt;&lt;b style=&quot;background-color: initial;&quot;&gt;Contrôle Livraison&lt;/b&gt;&lt;/div&gt;&lt;div style=&quot;line-height: 120%;&quot;&gt;&lt;ul style=&quot;line-height: 120%;&quot;&gt;&lt;li&gt;&lt;span style=&quot;background-color: initial;&quot;&gt;Structure fichiers&lt;/span&gt;&lt;/li&gt;&lt;li&gt;&lt;span style=&quot;background-color: initial;&quot;&gt;Valeurs saisies&lt;/span&gt;&lt;/li&gt;&lt;/ul&gt;&lt;/div&gt;" style="rounded=1;whiteSpace=wrap;html=1;align=left;" vertex="1" parent="1">
          <mxGeometry x="150" y="251" width="150" height="70" as="geometry" />
        </mxCell>
        <mxCell id="grSSC23IrZUVa-1DifsZ-42" value="CAGP" style="ellipse;whiteSpace=wrap;html=1;" vertex="1" parent="1">
          <mxGeometry x="400" y="261" width="75" height="50" as="geometry" />
        </mxCell>
        <mxCell id="grSSC23IrZUVa-1DifsZ-45" style="edgeStyle=orthogonalEdgeStyle;rounded=0;orthogonalLoop=1;jettySize=auto;html=1;entryX=-0.002;entryY=0.436;entryDx=0;entryDy=0;entryPerimeter=0;exitX=0.5;exitY=0;exitDx=0;exitDy=0;" edge="1" parent="1" source="grSSC23IrZUVa-1DifsZ-23" target="grSSC23IrZUVa-1DifsZ-4">
          <mxGeometry relative="1" as="geometry" />
        </mxCell>
        <mxCell id="grSSC23IrZUVa-1DifsZ-46" value="&lt;b&gt;&lt;font style=&quot;font-size: 24px;&quot;&gt;Délégataire&lt;/font&gt;&lt;/b&gt;" style="text;html=1;align=center;verticalAlign=middle;whiteSpace=wrap;rounded=0;" vertex="1" parent="1">
          <mxGeometry x="145" y="-30" width="160" height="30" as="geometry" />
        </mxCell>
        <mxCell id="grSSC23IrZUVa-1DifsZ-47" value="&lt;b&gt;&lt;font style=&quot;font-size: 24px;&quot;&gt;Régie&lt;/font&gt;&lt;/b&gt;" style="text;html=1;align=center;verticalAlign=middle;whiteSpace=wrap;rounded=0;" vertex="1" parent="1">
          <mxGeometry x="850" y="-30" width="160" height="30" as="geometry" />
        </mxCell>
        <mxCell id="grSSC23IrZUVa-1DifsZ-64" style="edgeStyle=orthogonalEdgeStyle;rounded=0;orthogonalLoop=1;jettySize=auto;html=1;entryX=0.5;entryY=0;entryDx=0;entryDy=0;" edge="1" parent="1" source="grSSC23IrZUVa-1DifsZ-48" target="grSSC23IrZUVa-1DifsZ-49">
          <mxGeometry relative="1" as="geometry" />
        </mxCell>
        <mxCell id="grSSC23IrZUVa-1DifsZ-48" value="&lt;b&gt;Saisie zone de travaux&lt;/b&gt;" style="rounded=1;whiteSpace=wrap;html=1;" vertex="1" parent="1">
          <mxGeometry x="692.5" y="50" width="150" height="60" as="geometry" />
        </mxCell>
        <mxCell id="grSSC23IrZUVa-1DifsZ-65" style="edgeStyle=orthogonalEdgeStyle;rounded=0;orthogonalLoop=1;jettySize=auto;html=1;entryX=0.5;entryY=0;entryDx=0;entryDy=0;" edge="1" parent="1" source="grSSC23IrZUVa-1DifsZ-49" target="grSSC23IrZUVa-1DifsZ-50">
          <mxGeometry relative="1" as="geometry" />
        </mxCell>
        <mxCell id="grSSC23IrZUVa-1DifsZ-49" value="&lt;b&gt;Saisie suivie des travaux&lt;/b&gt;" style="rounded=1;whiteSpace=wrap;html=1;" vertex="1" parent="1">
          <mxGeometry x="692.5" y="154" width="150" height="60" as="geometry" />
        </mxCell>
        <mxCell id="grSSC23IrZUVa-1DifsZ-69" style="edgeStyle=orthogonalEdgeStyle;rounded=0;orthogonalLoop=1;jettySize=auto;html=1;entryX=0.5;entryY=0;entryDx=0;entryDy=0;" edge="1" parent="1" source="grSSC23IrZUVa-1DifsZ-50" target="grSSC23IrZUVa-1DifsZ-68">
          <mxGeometry relative="1" as="geometry" />
        </mxCell>
        <mxCell id="grSSC23IrZUVa-1DifsZ-50" value="&lt;b&gt;Réception des plans&lt;/b&gt;" style="rounded=1;whiteSpace=wrap;html=1;" vertex="1" parent="1">
          <mxGeometry x="692.5" y="256" width="150" height="60" as="geometry" />
        </mxCell>
        <mxCell id="grSSC23IrZUVa-1DifsZ-63" style="edgeStyle=orthogonalEdgeStyle;rounded=0;orthogonalLoop=1;jettySize=auto;html=1;entryX=0;entryY=0.5;entryDx=0;entryDy=0;" edge="1" parent="1" source="grSSC23IrZUVa-1DifsZ-51" target="grSSC23IrZUVa-1DifsZ-53">
          <mxGeometry relative="1" as="geometry" />
        </mxCell>
        <mxCell id="grSSC23IrZUVa-1DifsZ-67" style="edgeStyle=orthogonalEdgeStyle;rounded=0;orthogonalLoop=1;jettySize=auto;html=1;entryX=0.5;entryY=0;entryDx=0;entryDy=0;" edge="1" parent="1" source="grSSC23IrZUVa-1DifsZ-51" target="grSSC23IrZUVa-1DifsZ-62">
          <mxGeometry relative="1" as="geometry" />
        </mxCell>
        <mxCell id="grSSC23IrZUVa-1DifsZ-51" value="&lt;b&gt;Saisie suivi PERIGEO&lt;/b&gt;&lt;div&gt;Statut : A intégrer&lt;/div&gt;&lt;div&gt;PJ : Ajout des fichiers à intégrer&lt;/div&gt;" style="rounded=1;whiteSpace=wrap;html=1;" vertex="1" parent="1">
          <mxGeometry x="693" y="469" width="150" height="60" as="geometry" />
        </mxCell>
        <mxCell id="grSSC23IrZUVa-1DifsZ-52" style="edgeStyle=orthogonalEdgeStyle;rounded=0;orthogonalLoop=1;jettySize=auto;html=1;entryX=0.5;entryY=0;entryDx=0;entryDy=0;" edge="1" parent="1" source="grSSC23IrZUVa-1DifsZ-53" target="grSSC23IrZUVa-1DifsZ-55">
          <mxGeometry relative="1" as="geometry" />
        </mxCell>
        <mxCell id="grSSC23IrZUVa-1DifsZ-53" value="&lt;b&gt;Intégration en base&lt;/b&gt;&lt;div&gt;&lt;ul&gt;&lt;li style=&quot;text-align: left;&quot;&gt;Archivage N-1&lt;/li&gt;&lt;li style=&quot;text-align: left;&quot;&gt;Suppression N-1&lt;/li&gt;&lt;li style=&quot;text-align: left;&quot;&gt;Ajout N&lt;/li&gt;&lt;/ul&gt;&lt;/div&gt;" style="rounded=1;whiteSpace=wrap;html=1;" vertex="1" parent="1">
          <mxGeometry x="948.5" y="456" width="150" height="86" as="geometry" />
        </mxCell>
        <mxCell id="grSSC23IrZUVa-1DifsZ-54" style="edgeStyle=orthogonalEdgeStyle;rounded=0;orthogonalLoop=1;jettySize=auto;html=1;entryX=0.5;entryY=0;entryDx=0;entryDy=0;" edge="1" parent="1" source="grSSC23IrZUVa-1DifsZ-55" target="grSSC23IrZUVa-1DifsZ-58">
          <mxGeometry relative="1" as="geometry" />
        </mxCell>
        <mxCell id="grSSC23IrZUVa-1DifsZ-55" value="&lt;b&gt;Saisie suivi PERIGEO&lt;/b&gt;&lt;div&gt;Statut : Recettage&lt;/div&gt;" style="rounded=1;whiteSpace=wrap;html=1;" vertex="1" parent="1">
          <mxGeometry x="948.5" y="584" width="150" height="60" as="geometry" />
        </mxCell>
        <mxCell id="grSSC23IrZUVa-1DifsZ-56" style="edgeStyle=orthogonalEdgeStyle;rounded=0;orthogonalLoop=1;jettySize=auto;html=1;entryX=0.5;entryY=0;entryDx=0;entryDy=0;" edge="1" parent="1" source="grSSC23IrZUVa-1DifsZ-58" target="grSSC23IrZUVa-1DifsZ-59">
          <mxGeometry relative="1" as="geometry" />
        </mxCell>
        <mxCell id="grSSC23IrZUVa-1DifsZ-57" style="edgeStyle=orthogonalEdgeStyle;rounded=0;orthogonalLoop=1;jettySize=auto;html=1;exitX=1;exitY=0.5;exitDx=0;exitDy=0;entryX=0.5;entryY=1;entryDx=0;entryDy=0;" edge="1" parent="1" source="grSSC23IrZUVa-1DifsZ-58" target="grSSC23IrZUVa-1DifsZ-60">
          <mxGeometry relative="1" as="geometry">
            <mxPoint x="1301" y="714.5" as="sourcePoint" />
          </mxGeometry>
        </mxCell>
        <mxCell id="grSSC23IrZUVa-1DifsZ-58" value="&lt;b&gt;Recettage&lt;/b&gt;&lt;div&gt;Présence des informations&lt;/div&gt;" style="rounded=1;whiteSpace=wrap;html=1;" vertex="1" parent="1">
          <mxGeometry x="948.5" y="687" width="150" height="60" as="geometry" />
        </mxCell>
        <mxCell id="grSSC23IrZUVa-1DifsZ-59" value="&lt;b&gt;Saisie suivi PERIGEO&lt;/b&gt;&lt;div&gt;Statut : Validé&lt;/div&gt;" style="rounded=1;whiteSpace=wrap;html=1;" vertex="1" parent="1">
          <mxGeometry x="948.5" y="790" width="150" height="60" as="geometry" />
        </mxCell>
        <mxCell id="grSSC23IrZUVa-1DifsZ-60" value="&lt;b&gt;Saisie suivi PERIGEO&lt;/b&gt;&lt;div&gt;Statut : A intégrer&lt;/div&gt;" style="rounded=1;whiteSpace=wrap;html=1;" vertex="1" parent="1">
          <mxGeometry x="1121" y="581.5" width="120" height="60" as="geometry" />
        </mxCell>
        <mxCell id="grSSC23IrZUVa-1DifsZ-61" style="edgeStyle=orthogonalEdgeStyle;rounded=0;orthogonalLoop=1;jettySize=auto;html=1;entryX=1;entryY=0.5;entryDx=0;entryDy=0;exitX=0.5;exitY=0;exitDx=0;exitDy=0;" edge="1" parent="1" source="grSSC23IrZUVa-1DifsZ-60" target="grSSC23IrZUVa-1DifsZ-53">
          <mxGeometry relative="1" as="geometry">
            <mxPoint x="1300.6999999999998" y="494.9960000000001" as="targetPoint" />
          </mxGeometry>
        </mxCell>
        <mxCell id="grSSC23IrZUVa-1DifsZ-62" value="&lt;b&gt;Saisie suivie des travaux&lt;/b&gt;" style="rounded=1;whiteSpace=wrap;html=1;" vertex="1" parent="1">
          <mxGeometry x="693" y="576" width="150" height="60" as="geometry" />
        </mxCell>
        <mxCell id="grSSC23IrZUVa-1DifsZ-70" style="edgeStyle=orthogonalEdgeStyle;rounded=0;orthogonalLoop=1;jettySize=auto;html=1;exitX=0.5;exitY=1;exitDx=0;exitDy=0;entryX=0.5;entryY=0;entryDx=0;entryDy=0;" edge="1" parent="1" source="grSSC23IrZUVa-1DifsZ-68" target="grSSC23IrZUVa-1DifsZ-51">
          <mxGeometry relative="1" as="geometry">
            <mxPoint x="767.5" y="466" as="targetPoint" />
            <mxPoint x="767.515151515152" y="440" as="sourcePoint" />
          </mxGeometry>
        </mxCell>
        <mxCell id="grSSC23IrZUVa-1DifsZ-68" value="&lt;div style=&quot;text-align: center;&quot;&gt;&lt;b style=&quot;background-color: initial;&quot;&gt;Contrôle Livraison&lt;/b&gt;&lt;/div&gt;&lt;div style=&quot;line-height: 120%;&quot;&gt;&lt;ul style=&quot;line-height: 120%;&quot;&gt;&lt;li&gt;&lt;span style=&quot;background-color: initial;&quot;&gt;Structure fichiers&lt;/span&gt;&lt;/li&gt;&lt;li&gt;&lt;span style=&quot;background-color: initial;&quot;&gt;Valeurs saisies&lt;/span&gt;&lt;/li&gt;&lt;/ul&gt;&lt;/div&gt;" style="rounded=1;whiteSpace=wrap;html=1;align=left;" vertex="1" parent="1">
          <mxGeometry x="693" y="354" width="150" height="70" as="geometry" />
        </mxCell>
      </root>
    </mxGraphModel>
  </diagram>
</mxfile>
